<svg width="29" height="27" viewBox="0 0 29 27" fill="none" xmlns="http://www.w3.org/2000/svg">
<path d="M1.46851 15.2152L24.0399 15.185L16.3866 24.1219C15.822 24.7813 15.8234 25.8488 16.3898 26.5066C16.9562 27.1645 17.8733 27.1632 18.4379 26.5039L28.5594 14.6848C29.124 14.0255 29.1226 12.9575 28.5562 12.3001L18.4031 0.508174C18.1199 0.179263 17.749 0.0149054 17.3782 0.0154018C17.0079 0.0158976 16.6373 0.181248 16.355 0.510916C15.7904 1.17025 15.7918 2.23823 16.3582 2.89563L24.0354 11.812L1.464 11.8422C0.664599 11.8433 0.0168229 12.5993 0.0180699 13.5307C0.0193168 14.462 0.668753 15.2163 1.46851 15.2152Z" fill="#292F36"/>
</svg>
